<svg id="Layer_1" data-name="Layer 1" xmlns="http://www.w3.org/2000/svg" viewBox="0 0 255.12 340.16">
    <path d="M401.34,257.13H193.93a17.52,17.52,0,0,0-12.45,5.21,17.77,17.77,0,0,0-5.18,12.52V567a17.77,17.77,0,0,0,5.18,12.53,17.52,17.52,0,0,0,12.45,5.21H401.34a17.49,17.49,0,0,0,12.45-5.21A17.73,17.73,0,0,0,419,567V274.86a17.72,17.72,0,0,0-5.18-12.52,17.49,17.49,0,0,0-12.45-5.21" transform="translate(-170.08 -250.87)" fill="#fff" fill-rule="evenodd" />
    <path d="M401.34,257.13H193.93a17.52,17.52,0,0,0-12.45,5.21,17.77,17.77,0,0,0-5.18,12.52V567a17.77,17.77,0,0,0,5.18,12.53,17.52,17.52,0,0,0,12.45,5.21H401.34a17.49,17.49,0,0,0,12.45-5.21A17.73,17.73,0,0,0,419,567V274.86a17.72,17.72,0,0,0-5.18-12.52,17.49,17.49,0,0,0-12.45-5.21m-207.41-6.26H401.34a23.68,23.68,0,0,1,16.85,7,24,24,0,0,1,7,16.95V567a24,24,0,0,1-7,17,23.72,23.72,0,0,1-16.85,7H193.93a23.74,23.74,0,0,1-16.85-7,24,24,0,0,1-7-17V274.86a24,24,0,0,1,7-16.95A23.7,23.7,0,0,1,193.93,250.87Z" transform="translate(-170.08 -250.87)" fill="#231f20" />
    <path d="M199.84,264.89H395.43a17.05,17.05,0,0,1,17,17v195.6a17.05,17.05,0,0,1-17,17H199.84a17.06,17.06,0,0,1-17-17V281.89a17.06,17.06,0,0,1,17-17" transform="translate(-170.08 -250.87)" fill="#007236" fill-rule="evenodd" />
    <path d="M346.92,573.74V505.52H383.8q11.86,0,18.49,4.91t6.63,13.68a13.87,13.87,0,0,1-3.13,9.29,14.9,14.9,0,0,1-8.87,4.84q7.84,1.43,11.68,5.44c2.57,2.67,3.84,6.26,3.84,10.76q0,9.57-7.29,14.43t-21.44,4.87Zm26-52v9.55h3.62a9,9,0,0,0,5.14-1.24,4.46,4.46,0,0,0,0-7.1,9.06,9.06,0,0,0-5.14-1.21Zm0,24.23v10.89h4.63a12.15,12.15,0,0,0,6.4-1.41,4.52,4.52,0,0,0,2.22-4,4.45,4.45,0,0,0-2.22-4,12.06,12.06,0,0,0-6.4-1.4ZM259.15,573.74V505.52h27.17v29.07l17.57-29.07h31.37L312,539.11l26.54,34.63H305l-18.68-28.52v28.52Zm-48.47-49.26v11.37H215a10.61,10.61,0,0,0,6.06-1.46,4.81,4.81,0,0,0,2.1-4.19A4.89,4.89,0,0,0,221,526a10.41,10.41,0,0,0-6-1.51Zm-27.84,49.26V505.52H216q17.46,0,25.54,6t8.09,18.92q0,12.06-7.26,17.63t-23.07,5.57h-8.68v20.14Z" transform="translate(-170.08 -250.87)" fill="#231f20" fill-rule="evenodd" />
    <path d="M283.84,336.91c2.35-6.85,5.05-11.79,8-14.31-8.08,1-15.67,4.67-22.36,10.4a61.77,61.77,0,0,0,14.37,3.91m-7.46,37.55a235.75,235.75,0,0,1,4-25.14c.87-3.89,1.82-7.45,2.84-10.65a63,63,0,0,1-14.71-4.08l-.58-.25a64.72,64.72,0,0,0-9.82,11.58,86.83,86.83,0,0,0-9.6,19.26,84.31,84.31,0,0,0,7.78,3.6A102.33,102.33,0,0,0,276.38,374.46Zm-2.22,39.69c.09-13.5.81-26.31,2-37.86a105,105,0,0,1-20.53-5.82c-2.69-1.08-5.26-2.27-7.71-3.55a114.39,114.39,0,0,0-5.78,36.45c0,.47,0,.95,0,1.43a122.92,122.92,0,0,0,13.26,5A135.93,135.93,0,0,0,274.16,414.15Zm.85,29.53-.15-2.38c-.46-7.94-.71-16.13-.71-24.36V416a138.23,138.23,0,0,1-19.26-4.49,121.84,121.84,0,0,1-12.69-4.71,117.52,117.52,0,0,0,2.65,21.83c.52,2.35,1.1,4.65,1.76,6.92a124.75,124.75,0,0,0,15.75,5.38A128.41,128.41,0,0,0,275,443.68Zm34.53-106.49c-7.07-19.55-16.74-19.55-23.8,0a92.34,92.34,0,0,0,23.8,0Zm7.57,37.58a236.28,236.28,0,0,0-4-25A111.38,111.38,0,0,0,310.15,339a93.65,93.65,0,0,1-25,0,111.55,111.55,0,0,0-2.93,10.77,233.73,233.73,0,0,0-4,25,122.28,122.28,0,0,0,38.94,0Zm2.18,39.67c-.07-13.51-.78-26.31-2-37.85a123.94,123.94,0,0,1-39.33,0c-1.2,11.53-1.91,24.34-2,37.84a147.8,147.8,0,0,0,43.31,0ZM318.43,444c.06-.93.12-1.86.17-2.79.46-7.86.7-16,.7-24.25v-.66a149.26,149.26,0,0,1-43.32,0v.66c0,8.24.24,16.39.7,24.25l.18,2.79a138.44,138.44,0,0,0,41.58,0Zm7.38-111c-6.7-5.73-14.28-9.4-22.36-10.4,2.93,2.52,5.63,7.46,8,14.31A61.72,61.72,0,0,0,325.81,333Zm20.92,32.18a87.27,87.27,0,0,0-9.6-19.26,65.14,65.14,0,0,0-9.82-11.58l-.58.25A63.13,63.13,0,0,1,312,338.67c1,3.2,2,6.76,2.85,10.65a238.32,238.32,0,0,1,4,25.14,102.25,102.25,0,0,0,20.47-5.85C341.93,367.56,344.39,366.41,346.73,365.18Zm6.38,39.62c0-.48,0-1,0-1.43a114.39,114.39,0,0,0-5.79-36.45c-2.31,1.22-4.75,2.35-7.28,3.38a104,104,0,0,1-20.95,6c1.21,11.55,1.93,24.36,2,37.86A136,136,0,0,0,341,409.41,124.93,124.93,0,0,0,353.11,404.8Zm-4.45,30.75c.65-2.27,1.24-4.57,1.75-6.92a116.68,116.68,0,0,0,2.66-21.83,120.77,120.77,0,0,1-11.53,4.34A138.21,138.21,0,0,1,321.12,416v.94c0,8.23-.24,16.42-.71,24.36,0,.8-.09,1.59-.14,2.39a131.45,131.45,0,0,0,13.54-3A124.42,124.42,0,0,0,348.66,435.55ZM331.15,330.2a71.16,71.16,0,0,0-15-5.72,49.92,49.92,0,0,1,11.46,7.69A31.28,31.28,0,0,0,331.15,330.2Zm28.62,26a79.89,79.89,0,0,0-9.31-11.58A75.27,75.27,0,0,0,333,331.17a30.23,30.23,0,0,1-3.87,2.32,67.81,67.81,0,0,1,9.56,11.41,89.27,89.27,0,0,1,9.7,19.4A61.67,61.67,0,0,0,359.77,356.17Zm13.39,37a84.66,84.66,0,0,0-12.38-35.4A64.64,64.64,0,0,1,349,366.05a116.15,116.15,0,0,1,6,37.32v.6A100.78,100.78,0,0,0,373.16,393.13ZM337,323.66c-2-.72-4.09-1.34-6.16-1.86a69.68,69.68,0,0,0-22.2-1.94q-2.91.22-5.75.67l-.29.05A71.78,71.78,0,0,1,332.81,329,12,12,0,0,0,337,323.66ZM262.47,329a71.77,71.77,0,0,1,30.22-8.43l-.28-.05c-1.9-.3-3.81-.52-5.75-.67a69.66,69.66,0,0,0-22.2,1.94c-2.08.52-4.13,1.14-6.17,1.86A12.1,12.1,0,0,0,262.47,329Zm5.17,3.16a49.87,49.87,0,0,1,11.46-7.68,70.51,70.51,0,0,0-15,5.71A31.11,31.11,0,0,0,267.64,332.17ZM246.93,364.3a88.84,88.84,0,0,1,9.71-19.4,67.35,67.35,0,0,1,9.56-11.41,31.09,31.09,0,0,1-3.88-2.32,75.7,75.7,0,0,0-17.5,13.42,80.17,80.17,0,0,0-9.32,11.59A62.45,62.45,0,0,0,246.93,364.3ZM240.34,404v-.6a116.15,116.15,0,0,1,6-37.32,63.86,63.86,0,0,1-11.82-8.33,84.76,84.76,0,0,0-12.39,35.41A100.87,100.87,0,0,0,240.34,404Zm36.31,57.76c-.62-5.2-1.12-10.61-1.51-16.17a134.77,134.77,0,0,1-13.24-2.86,128.23,128.23,0,0,1-14.6-4.89,96.08,96.08,0,0,0,4.48,11.62A76.55,76.55,0,0,0,276.65,461.73Zm40.09.51c.64-5.25,1.16-10.74,1.56-16.39a140.25,140.25,0,0,1-41.32,0c.4,5.65.92,11.14,1.55,16.39a77.56,77.56,0,0,0,38.21,0Zm26.76-12.81A97.27,97.27,0,0,0,348,437.8a127.35,127.35,0,0,1-13.69,4.65,134.81,134.81,0,0,1-14.15,3.11c-.39,5.56-.9,11-1.51,16.17A76.65,76.65,0,0,0,343.5,449.43Zm17.17-17.66q-5.09,2.81-10.52,5.13a99.81,99.81,0,0,1-3.62,10.15c2-1.62,3.85-3.34,5.64-5.14A78.58,78.58,0,0,0,360.67,431.77Zm13.14-32.53h-.15c-.06-1.35-.15-2.69-.27-4A104.06,104.06,0,0,1,354.91,406a119,119,0,0,1-2.73,23q-.62,2.84-1.38,5.59a112.5,112.5,0,0,0,12.12-6.25A77.45,77.45,0,0,0,373.81,399.24Zm-7.44-47.45a47.43,47.43,0,0,1-4.24,4.67,86.46,86.46,0,0,1,12.55,34.23c.05-1.21.08-2.43.08-3.65A77.66,77.66,0,0,0,366.37,351.79ZM349,329.17a73.22,73.22,0,0,0-10.34-4.89,13.41,13.41,0,0,1-4.18,5.67,77.48,77.48,0,0,1,17.24,13.36,81.06,81.06,0,0,1,9.36,11.6,44.73,44.73,0,0,0,4.33-4.89,77.74,77.74,0,0,0-13.27-17.86Q350.64,330.63,349,329.17Zm-9.85-7.53a7.9,7.9,0,0,1-.07.85c1.08.4,2.16.84,3.22,1.3C341.3,323.05,340.25,322.33,339.18,321.64Zm-16.57-8.05q-2.7.21-5.37.63a69.49,69.49,0,0,0-8.75,2q-2.89.84-5.7,1.94c-.82.32-1.63.65-2.43,1l2.22-.39q3-.47,5.91-.69a71.21,71.21,0,0,1,22.77,2q3.08.77,6.09,1.82c0-.15,0-.31,0-.47a7,7,0,0,0-.06-.91A77,77,0,0,0,322.61,313.59Zm-14.32-3.42c-.25.2-.48.4-.72.61h0c-1,.88-2.07,1.82-3.09,2.81s-2,2-3,3.09l.66-.26c1.92-.75,3.88-1.41,5.86-2a68.56,68.56,0,0,1,9-2l1.26-.19A76.51,76.51,0,0,0,308.29,310.17Zm-18.85-.3c.91.79,1.78,1.59,2.62,2.4q1.77,1.73,3.41,3.54h0c.74.82,1.47,1.66,2.17,2.51.7-.85,1.42-1.69,2.16-2.51h0q1.65-1.81,3.42-3.54,1.26-1.22,2.61-2.4a78.31,78.31,0,0,0-16.39,0Zm-12.39,2.36,1.26.19a69.29,69.29,0,0,1,9,2q3,.87,5.85,2l.67.27c-1-1.07-2-2.11-3-3.1s-2.05-1.93-3.09-2.81h0l-.72-.61A75.82,75.82,0,0,0,277.05,312.23ZM258,320.48a6.58,6.58,0,0,0-.06.9c0,.16,0,.32,0,.47q3-1.05,6.09-1.82a71.18,71.18,0,0,1,22.77-2q2.94.22,5.9.69l2.22.39c-.8-.35-1.61-.68-2.42-1q-2.82-1.1-5.71-1.94a69.1,69.1,0,0,0-8.75-2c-1.77-.28-3.56-.49-5.36-.63A76.46,76.46,0,0,0,258,320.48Zm-5,3.31c1.06-.46,2.13-.9,3.21-1.3,0-.28-.06-.56-.07-.85C255,322.33,254,323.05,253,323.79ZM229.84,350a44.62,44.62,0,0,0,4.32,4.89,81.82,81.82,0,0,1,9.37-11.6A77.42,77.42,0,0,1,260.76,330a13.33,13.33,0,0,1-4.17-5.67,72.7,72.7,0,0,0-10.34,4.89q-1.62,1.45-3.15,3A78,78,0,0,0,229.84,350ZM220.6,390.7a86.45,86.45,0,0,1,12.55-34.24,45.05,45.05,0,0,1-4.24-4.67,77.67,77.67,0,0,0-8.4,35.25Q220.51,388.87,220.6,390.7Zm11.75,37.67a114.4,114.4,0,0,0,12.12,6.25q-.75-2.76-1.38-5.59a119.77,119.77,0,0,1-2.72-23,103.49,103.49,0,0,1-18.48-10.75c-.12,1.33-.22,2.67-.28,4h-.15A77.45,77.45,0,0,0,232.35,428.37Zm16.39,18.68a102.25,102.25,0,0,1-3.61-10.15,116.31,116.31,0,0,1-10.52-5.13,77.71,77.71,0,0,0,8.49,10.14C244.9,443.71,246.78,445.43,248.74,447.05Zm48.9-141.27a80.26,80.26,0,0,1,57.11,23.8,81.63,81.63,0,0,1,0,114.92,80.42,80.42,0,0,1-114.22,0,81.6,81.6,0,0,1,0-114.92A80.24,80.24,0,0,1,297.64,305.78Z" transform="translate(-170.08 -250.87)" fill="#fff" />
    <path d="M266.8,387h0a24.73,24.73,0,0,1,.89,3.13c.16.67.38,1.34,1.21,1.53a.54.54,0,0,1,.31.45,10.87,10.87,0,0,0,.51,2.29,1.32,1.32,0,0,0,1.36,1.28,6,6,0,0,0,1.46.06,1.12,1.12,0,0,1,1.17.7.89.89,0,0,0,1.24.45c.54-.19,1.11-.35,1.68-.51.19,0,.41-.13.57-.07a24.72,24.72,0,0,1,2.47,1c.22.1.32.48.51.7a.91.91,0,0,0,1,.39c.57-.16,1.11-.39,1.68-.52a2,2,0,0,1,.82.16.73.73,0,0,0,.86-.6c0-.1.06-.19,0-.29a2,2,0,0,1,.1-1.94,2.48,2.48,0,0,0,.31-1.41,2.58,2.58,0,0,1,.67-2.2,9.23,9.23,0,0,0,1.68-3.09c.25-.54.41-1.11.63-1.66a1.2,1.2,0,0,1,.89-.7,8.3,8.3,0,0,0,.89-.06,1.65,1.65,0,0,0,.54-.19c.25-.07.31-.51.22-.77-.38-.73-1.21-1-1.71-1.63a1,1,0,0,1-.16-1.08,1,1,0,0,0-.13-1.08c-1-1.05-.79-2.17-.28-3.32a1.58,1.58,0,0,1,.79-.86,1.17,1.17,0,0,0,.57-1,.9.9,0,0,1,.73-.79,1.5,1.5,0,0,0,1-.55.88.88,0,0,0,.13-.28,1.71,1.71,0,0,0-.06-.26l-2.06-1.14c-.7-.39-1.46-.67-1.53-1.63-.41-.42-.79-.89-1.23-1.28a1.27,1.27,0,0,0-.83,0,1.86,1.86,0,0,0-1.17.83c-.28.51-.5,1.09-.79,1.59a3.34,3.34,0,0,1-.73.93,8.48,8.48,0,0,1-2.15,1.43,5.07,5.07,0,0,0-2.6,2.33c-.26.51-.73.93-1.05,1.44a3.88,3.88,0,0,1-2.6,1.78,2.76,2.76,0,0,0-2.09,1.88c-.16.39-.28.74-.44,1.12a.85.85,0,0,1-1,.41l-2-.73a1.14,1.14,0,0,0-1.49.48,4.52,4.52,0,0,0-.5.73,3.43,3.43,0,0,0-.39,2.58m28.59.19h0a29.7,29.7,0,0,1,6.46.13,4.27,4.27,0,0,0,4.66-2.39.69.69,0,0,0-.16-.8.67.67,0,0,0-.82-.19c-.35.32-.7.67-1.08,1a2.57,2.57,0,0,1-2.19.67c-1.14-.19-2.34-.22-3.51-.38a18.28,18.28,0,0,0-2.29-.48c-.95,0-1.29,1.21-2.28,1.21a.59.59,0,0,0-.28.13,2,2,0,0,0-1,1.4c-.07.38,0,.8-.1,1.18a2.57,2.57,0,0,1-.38,1.12,3.1,3.1,0,0,0-.82,2.17,4.82,4.82,0,0,1-.51,2,7.74,7.74,0,0,0-.54,1.38,1.51,1.51,0,0,0,.41,1.62c.22.19.48.32.7.51a1.7,1.7,0,0,1,.54,1.63,4.42,4.42,0,0,0-.38,2,1.4,1.4,0,0,0,.35.79,1.78,1.78,0,0,0,1.93.1c.48-.19.32-.64.32-1a48.08,48.08,0,0,1,.57-5.29c0-.13.28-.32.44-.32s.38.22.38.32a2.93,2.93,0,0,0,.86,2.68c.25.22.22.73.35,1.11.19.67.44.83,1.33.86.15,0,.34,0,.54,0,0,0,0-.07,0-.1a.42.42,0,0,0,.19-.06c0,.06-.09.09-.12.16h0c.09.54.19,1.11.88,1.31.07,0,.16.13.22.16a.9.9,0,0,0,1.21-.45,7.44,7.44,0,0,0,.13-2.36,1.14,1.14,0,0,0-.67-.92,3.9,3.9,0,0,1-.76-.45,1,1,0,0,1-.45-1,1.6,1.6,0,0,0-.31-1.4l-1.05-1.44a.68.68,0,0,1,.19-.8c.48-.31.95-.67,1.46-1a1.3,1.3,0,0,1,1.14,0,1.91,1.91,0,0,0,.86,0,.55.55,0,0,0,.47-.29,14.32,14.32,0,0,0,.1-1.75.59.59,0,0,0-.35-.39,3.41,3.41,0,0,0-1.14-.06,15.51,15.51,0,0,1-2.32.54,2.87,2.87,0,0,0-2.34,1c-.06.1-.38.13-.54.07a2.83,2.83,0,0,1-1.65-2A1.69,1.69,0,0,1,295.39,387.14Zm-20.5,22.1h0a6.1,6.1,0,0,1,3.39.73,1,1,0,0,0,1.33-.22.84.84,0,0,1,.82-.13,6.46,6.46,0,0,0,1.14.19c.32,0,.76-.44.76-.76s-.28-.67-.54-.67a4,4,0,0,1-2.94-1,1.14,1.14,0,0,0-.57-.09c-.38,0-.8,0-1.18-.07a.91.91,0,0,1-.73-.41c-.09-.19.13-.42.57-.51a2.82,2.82,0,0,0,.58-.1c.28,0,.66-.12.63-.41s-.48-.35-.73-.38a13,13,0,0,1-3.48-.58c-.54-.19-1.11-.35-1.65-.6a1.38,1.38,0,0,0-2,.47,1.26,1.26,0,0,1-1.05.42c-.5,0-1-.13-1.45-.13a2.9,2.9,0,0,1-2.32-1,3.91,3.91,0,0,0-3-1.05c-1.07,0-2.09-.32-3.13-.35v-.1h-.1c.06-1.11.19-2.26.16-3.38s.51-2.39.57-3.6c0,0,0,0-.06,0l-.7-.67a.42.42,0,0,1,0-.19,1.39,1.39,0,0,1-.22-.29,1.3,1.3,0,0,1,.15,0,1.23,1.23,0,0,0,.07.32.57.57,0,0,1,.09.16,6,6,0,0,1,.7.63v.1a5.53,5.53,0,0,0,.79.16.49.49,0,0,0,.29,0,.64.64,0,0,0,.35-.74c-.57-.89-1.15-1.78-1.75-2.67-.06-.13-.35-.16-.54-.13a1.32,1.32,0,0,0-1,.54c-.13.16-.19.35-.32.51a.54.54,0,0,1-.94-.09c-.23-.55-.45-1.09-.64-1.63a1.3,1.3,0,0,0-.82-.8c-.38-.13-.76-.16-1.14-.32-.13-.06-.35-.38-.32-.44.41-.51-.22-1.12.16-1.6a.59.59,0,0,0,.06-.79c-.47-.74-1.39-1.09-1.61-2.08,0-.22-.39-.41-.64-.57-.51-.26-1.08-.48-1.58-.73-.26-.13-.64-.26-.73-.48-.29-.73-1-.83-1.55-1.28a5.54,5.54,0,0,0-2-1.21,1.94,1.94,0,0,1-1.11-.95,3.55,3.55,0,0,0-1.49-1.41,11.08,11.08,0,0,1-4-3.76,1.94,1.94,0,0,0-1.53-.86,11.75,11.75,0,0,1-3.71-.8c-.22-.13-.56,0-.82.1s-.44.67-.28,1.08a5.2,5.2,0,0,0,.66,1.31,9.63,9.63,0,0,0,2.69,2.3,4.09,4.09,0,0,1,1.53,1.33A11.61,11.61,0,0,1,239,380.9a9.56,9.56,0,0,0,2.29,2.67,3,3,0,0,1,.63,1c.29.64.44,1.34.73,2a2.9,2.9,0,0,0,.66.95,8.07,8.07,0,0,1,2.32,3.7c.19.67.5,1.31.73,1.95a6.21,6.21,0,0,0,1,1.78c.83,1,1.9,1.75,2.66,2.74a18.61,18.61,0,0,0,2.79,2.62,14.32,14.32,0,0,1,2.25,1.94,1.12,1.12,0,0,0,1.05.32,12.6,12.6,0,0,1,3.07,0v.1h.1a5.34,5.34,0,0,1-.89,2.07.53.53,0,0,0,.25.73c.67.19,1.33.29,1.75,1a1.26,1.26,0,0,0,1,.51,4.77,4.77,0,0,1,2.28.58,2.81,2.81,0,0,0,1.68.22,6.24,6.24,0,0,1,3.71.57,8.34,8.34,0,0,0,3.71.86A19.74,19.74,0,0,0,274.89,409.24Zm32-47.47h0c-.06,0-.1.16-.1.25a6.83,6.83,0,0,1-.54,1.69c-.28.48-.85.77-1.26,1.18-.22.19-.38.45-.6.64s-.48.35-.7.54-.48,0-.7-.16c-.66-.7-1.08-1-2-.06a5,5,0,0,1-1.65,1.15,1.78,1.78,0,0,0-1,1.81s0,.07,0,.16.06.45.19.55.38,0,.5-.13l.86-.8a6.63,6.63,0,0,0,2.57-.22c.25-.1.88.44.88.7s0,.76,0,1.15a2.66,2.66,0,0,0,2,2.61,7.13,7.13,0,0,0,1.46.29,1.18,1.18,0,0,0,1-1.5c-.09-.54-.57-1.05-.32-1.66a.53.53,0,0,1,.45-.29c.16,0,.28.23.41.39.44.54.41.51.83.16a1.83,1.83,0,0,0,.6-2.11,22.78,22.78,0,0,1-.73-2.87,2.37,2.37,0,0,0-.73-1.56,3.34,3.34,0,0,1-1.17-1.66C307.11,361.77,307,361.67,306.86,361.77Zm-37.74-25.6h0a1,1,0,0,0-.45-.74,2.8,2.8,0,0,0-.88-.35h-.48a4.08,4.08,0,0,0-3.58,1.72,1.21,1.21,0,0,0-.25.51,2.33,2.33,0,0,0,1.39,2.65,3,3,0,0,0,3.14-1.09A6.54,6.54,0,0,0,269.12,336.17ZM304.23,355h0a.84.84,0,0,0-.51.95c.16.45.38.9.57,1.34,0,0,0,0,.07-.06v.13a2.27,2.27,0,0,1,.31.25.3.3,0,0,1,0,.23c-.16.19-.28.16-.31-.1a.62.62,0,0,1,0-.38l-.07-.07a.55.55,0,0,1-.12.16,1.82,1.82,0,0,0-.1,2.2c.35.48.6,1,.95,1.5a.56.56,0,0,0,.51.16.58.58,0,0,0,.47-.61,8.33,8.33,0,0,1-.22-.86c0-.16,0-.47.13-.51,1-.32.95-1.08.82-1.88a4.39,4.39,0,0,0-.47-1.69A1.67,1.67,0,0,0,304.23,355Zm9.66,42h0a7,7,0,0,1,5.42.47.45.45,0,0,0,.29.07c.22.09.57-.16.66-.57a2.71,2.71,0,0,0-.25-.67,1.81,1.81,0,0,0-.67-.55,7.11,7.11,0,0,0-5.1-.63,1.29,1.29,0,0,0-1,.95C313.07,396.65,313.42,397.12,313.89,397Zm-30.35,13.36h0c.57.19,1.11.35,1.67.51.39.12.77.16,1.11.25a36.12,36.12,0,0,0,4.63-.92c.22-.07.25-.26.1-.48a3,3,0,0,0-2.86-1.15c-.12,0-.28.22-.38.38a2.27,2.27,0,0,0-.28.45c-1-.61-2.12.1-3.17-.29a.83.83,0,0,0-.95.51C283.25,409.88,283.31,410.29,283.54,410.36Zm15.84-.2h0a2.3,2.3,0,0,0,.76-.44,1.3,1.3,0,0,0,.35-.45.33.33,0,0,0-.1-.51c-.09,0-.19-.13-.25-.13a4.82,4.82,0,0,1-2.53.51c-.89-.15-1.75-.25-2.63-.41-.1,0-.19,0-.29,0a2.15,2.15,0,0,0-1.87.67.79.79,0,0,0-.19.54c0,.13.19.38.35.41.76.16,1.52.29,2.28.42C296.66,410.55,298,410.39,299.38,410.16ZM286.9,365.05h0c0,.06,0,.19,0,.22s.15.13.22.2a.83.83,0,0,0,.31,0,6.44,6.44,0,0,0,2.38-2.13,7.36,7.36,0,0,1,2.44-2.49c.32-.19.25-.19-.06-.67-.51-.83-.95-.67-1.3-.16a29.68,29.68,0,0,1-3.71,4.56A1,1,0,0,0,286.9,365.05Zm3.86,47.57h0a15.87,15.87,0,0,1,2.63,1.34,1.91,1.91,0,0,0,.86,0,.68.68,0,0,0,.44-.89c-.13-.16-.19-.35-.32-.51a3.47,3.47,0,0,0-2.88-1.06,2.1,2.1,0,0,0-.63.16.6.6,0,0,0-.26.45C290.57,412.3,290.67,412.59,290.76,412.62Zm20.38-15.4h0a1.14,1.14,0,0,0,.22-.51c-.1-.16-.13-.38-.22-.51a1.87,1.87,0,0,0-2.79,0,.68.68,0,0,0,0,.8,2,2,0,0,0,2.06.64A1.76,1.76,0,0,0,311.14,397.22Zm18,4.91h0c-.09,0-.19,0-.22.1a3.17,3.17,0,0,0-.76,2.07.76.76,0,0,0,.29.48c0,.06.19,0,.28,0a2,2,0,0,0,.86-2.42A.33.33,0,0,0,329.1,402.13Zm-9.47,16.2h0a1.11,1.11,0,0,0,1.11-.74c.13-.25,0-.67-.29-.7a5.42,5.42,0,0,1-.79-.13c-.41.07-.79.07-1.14.16a.59.59,0,0,0-.35.39.7.7,0,0,0,.16.51A9.24,9.24,0,0,0,319.63,418.33ZM306.35,393h0c.38,0,.76,0,1.14,0,.13,0,.22-.19.32-.29-.06-.06-.13-.16-.19-.16-.86-.12-1.71-.22-2.54-.28-.12,0-.31.19-.38.35a.26.26,0,0,0,.23.41C305.4,393,305.88,393,306.35,393Zm-67.53-8.7h0a.25.25,0,0,0-.25,0c-.16.1-.35.22-.35.35a1.52,1.52,0,0,0,.86,1.34.47.47,0,0,0,.28,0,1.7,1.7,0,0,0,.32-.38A1.56,1.56,0,0,0,238.82,384.31Zm25,10.2h0a.49.49,0,0,0-.22.19.78.78,0,0,0-.09.83.86.86,0,0,0,1,.45,2.08,2.08,0,0,0,.63-.32c0-.19.1-.32.1-.38A1.18,1.18,0,0,0,263.79,394.51Zm-21.51-3.76h0a.72.72,0,0,0-.51.06c-.22.07-.25.26-.16.48a1.52,1.52,0,0,0,.89,1c.13,0,.25.06.32,0s.25-.29.25-.45A1.13,1.13,0,0,0,242.28,390.75Zm77.82-2.52h0s-.09.19-.06.22.19.35.29.35a3.91,3.91,0,0,0,1.07-.09c.07,0,.13-.13.19-.19s0-.2-.06-.26C321.15,387.72,320.61,387.72,320.1,388.23Zm-17.61-26.18h0l0,.07s.07,0,.13,0c.44.79.73.92,1.24.7a.79.79,0,0,0,.41-1,.66.66,0,0,0-.76-.22,9.69,9.69,0,0,0-.89.48l0,0h-.06c.15-.41.31-.82.44-1.24a4.26,4.26,0,0,0,.12-.83.37.37,0,0,0-.09-.25c-.13-.16-.28-.13-.44,0s-.38.38-.57.54v0s0,.06-.07.06c0-.73-.69-.86-1.17-1.18l.1-.1-.1.1a3.62,3.62,0,0,0,0-.57c0-.19,0-.45-.16-.54a8.77,8.77,0,0,0-2.59-1.09c-.07,0-.2.1-.2.13,0,1,.07,1.91.13,2.87,0,.32.38.38.63.48s.77.25,1.08-.1l.57-.67-.06.1,0,0a5.16,5.16,0,0,1-.63,2.11c-.64.8-.54,1.08.25,1.63a10.68,10.68,0,0,0,1,.6.55.55,0,0,0,.7-.32,3.7,3.7,0,0,0,.44-1.66l.07.07v-.07ZM321,407.42h0c0,.13.16.32.29.45s.19,0,.28,0a.81.81,0,0,0,.54-.93c-.07-.16-.13-.41-.25-.44a.58.58,0,0,0-.54.19A1.75,1.75,0,0,0,321,407.42ZM293.2,356.35h0a2.75,2.75,0,0,0-.63-.39c-.29-.12-.51.13-.51.55a.59.59,0,0,0,.22.47C292.54,357.11,293.11,356.76,293.2,356.35ZM308.51,408h0a2.54,2.54,0,0,0,.57-.07.63.63,0,0,0,.35-.35c0-.13-.19-.28-.32-.38a.39.39,0,0,0-.26,0h-.31c-.29,0-.57.1-.67.41S308.13,408,308.51,408Zm4.5-15.59h0c.15,0,.28-.2.41-.29a1.77,1.77,0,0,0-.07-.29.63.63,0,0,0-.72-.35c-.29.06-.54.48-.42.67A.7.7,0,0,0,313,392.41Zm19.67,31.75h0a2,2,0,0,0,.54.45c.19-.16.41-.23.48-.35a.77.77,0,0,0-.16-.48.87.87,0,0,0-.47-.19A.39.39,0,0,0,332.68,424.16Zm-67.3-46.9h0c-.1-.22-.35-.35-.48-.48-.38.1-.57.45-.41.7a.92.92,0,0,0,.44.32C265.16,377.9,265.51,377.48,265.38,377.26Zm37.42-25.54h0a.36.36,0,0,0,.19.61,1.49,1.49,0,0,0,.45-.26c.09-.22,0-.41-.19-.47A.57.57,0,0,0,302.8,351.72ZM333,392.41h0a1,1,0,0,0,1-.23l-.67-.32a3.15,3.15,0,0,1-.38.1c-.06.06-.16.16-.16.22S332.91,392.34,333,392.41Zm.35-1.92h0c.06,0,.09-.12.16-.19a.73.73,0,0,0-.8-.63c-.06,0-.22.12-.19.15a1.93,1.93,0,0,0,.35.67C332.91,390.59,333.16,390.52,333.32,390.49Zm-35.08-34.72h0a3.52,3.52,0,0,0-.25-.38c-.1.13-.23.22-.32.35a1.91,1.91,0,0,0,.41.26A.41.41,0,0,0,298.24,355.77Zm-72.56,2.07a.15.15,0,0,0,.18.1.19.19,0,0,0,.16-.16,1.4,1.4,0,0,0-.09-.51h0C225.83,357.46,225.75,357.65,225.68,357.84Zm73.16,12.92h0c0-.23-.22-.29-.41-.19s-.32.25-.19.44.28.16.44.26A1,1,0,0,0,298.84,370.76Zm19.74,21.55h0c-.12.1-.31.16-.38.29s0,.35.22.38.64-.13.54-.35S318.71,392.44,318.58,392.31Zm-13.34,16.58h0a.43.43,0,0,0-.19-.16c-.31-.1-.57,0-.57.26s.16.25.22.38C305,409.4,305.34,409.08,305.24,408.89Zm63.66,3.95h0l-.09-.12s0,0-.1-.07v-.13c-.28-.79-.5-.92-1.23-.7a1.58,1.58,0,0,0-.41.23s-.1,0-.16,0v.07c-.67,0-1.33.06-1.68-.7a.76.76,0,0,0-.16-.26,9.37,9.37,0,0,1-1.39-1.05c-.39-.45-.61-1-1-1.5s-.73-.64-1-1-.73-.92-1.08-1.4a.68.68,0,0,1,.22-1c.22-.16.51-.26.73-.45a1,1,0,0,0-.16-1.56,5.36,5.36,0,0,0-.79-.41c-.63-.26-1.27-.58-1.9-.77a1.88,1.88,0,0,1-1.62-1.82,1.63,1.63,0,0,0-.69-.92,16.85,16.85,0,0,0-6.25-3.22,24.4,24.4,0,0,1-3-1.09,17.28,17.28,0,0,0-3.29-1.27A23.86,23.86,0,0,1,339,392c-1.39-.6-2.6-.95-3.51.67a.84.84,0,0,1-.23.23,8.65,8.65,0,0,0-3.32,2.83.9.9,0,0,1-1.08,0l-1.71-1.63a1.37,1.37,0,0,1-.42-1.08c0-.39.07-.8.13-1.18a2.91,2.91,0,0,0-.47-2c-.23-.48-.83-.45-1.3-.58s-1.08-.38-1.65-.6a2.13,2.13,0,0,0-1.71.1,14.56,14.56,0,0,1-3.2,1.49.61.61,0,0,0-.22.45.72.72,0,0,0,.25.51,4.84,4.84,0,0,0,1.08.45,1.62,1.62,0,0,1,1.2.79,2.16,2.16,0,0,0,2.19,1.22c.57,0,1.17-.07,1.77-.07.13,0,.26.19.38.29-.06.06-.16.19-.22.19-1.08-.1-2,.73-3.1.67a.26.26,0,0,0-.2.45,6.38,6.38,0,0,1,1.37,2.55.77.77,0,0,0,1.23.28,4.58,4.58,0,0,0,.57-.67c.19-.22.42-.44.73-.28.76.44,1.59.83,2.32,1.34a5.59,5.59,0,0,0,1.55.76c.95.26,1.9.58,2.82.86a10.24,10.24,0,0,1,1.68.61,3.67,3.67,0,0,1,2.31,2.49,7.73,7.73,0,0,0,.64,1.33c.15.35.31.74.47,1.09s.1.67-.22.7c-1,.13-1.46.89-1.9,1.69-.29.54,0,1,.51,1.05a8,8,0,0,0,2.62-.35,2.27,2.27,0,0,1,2.6.89,5.42,5.42,0,0,0,.54.7,2.26,2.26,0,0,0,1.59.77,13.5,13.5,0,0,1,3.48.51,1.74,1.74,0,0,0,1.4-.25c.63-.29.76-.61.57-1.47,0-.16-.16-.45-.07-.51a25.33,25.33,0,0,1,2.06-1.66,2.2,2.2,0,0,1,2-.19c.63.29,1.24.64,1.84.92a3.06,3.06,0,0,1,1.36,1.09c.79,1.11,1.71,2.16,2.57,3.25a2.66,2.66,0,0,0,2.28,1.15,9.32,9.32,0,0,1,4.53,1.08c.1.06.22.1.29.06a.8.8,0,0,0,.5-.22.66.66,0,0,0,.19-.51,1,1,0,0,0-.66-.89c-.8-.26-.64-.83-.54-1.37H367l.07,0a2.93,2.93,0,0,1,1.64.6.22.22,0,0,1,0,.13l.15.06a3,3,0,0,0,.42.51c.19.16.35.07.35-.16a.34.34,0,0,0-.13-.22A4.84,4.84,0,0,0,368.9,412.84Zm-13.85,30.25a3.37,3.37,0,0,1,0-.55,4.53,4.53,0,0,0-.73-3.1,4,4,0,0,1-.63-2.55c0-.67-.13-1.37-.1-2.07a2.83,2.83,0,0,0-1-2.36A1.61,1.61,0,0,0,351,432a.71.71,0,0,1-.86-.57,4.47,4.47,0,0,1-.16-.86,13.35,13.35,0,0,0-.47-2.94c-.29-1.34-1.11-2.52-1.34-3.89-.06-.22-.41-.44-.63-.57a.72.72,0,0,0-.54.13,1.33,1.33,0,0,0-.35.48c-.34.79-.5,1.69-.88,2.51a21.11,21.11,0,0,0-.64,2.55,12,12,0,0,0-.6,4.37,4.64,4.64,0,0,1-.19,1.47c-.28,1.15-.67,2.3-1,3.41a23.53,23.53,0,0,1-.79,2.23,1.8,1.8,0,0,1-1.36,1,2.36,2.36,0,0,1-2.41-.76A3.51,3.51,0,0,1,338,439H338a.28.28,0,0,0,.1-.13,3.33,3.33,0,0,0,.6-.16c.22-.12.22-.32,0-.44,0,0-.19,0-.22.09a6.11,6.11,0,0,0-.41.51,1.46,1.46,0,0,0-.19.07s0,0,0,.06a3.45,3.45,0,0,1-.54,0,2.78,2.78,0,0,1-2.09-1,6.56,6.56,0,0,0-2.41-1.63,3.27,3.27,0,0,1-1.39-1.08,6.73,6.73,0,0,0-1-1.05,1.13,1.13,0,0,1-.31-1.34,7,7,0,0,0,.92-2.77c0-.29.28-.48.57-.61a1.53,1.53,0,0,0,.76-.45c.44-.76.85-1.56,1.23-2.36,0-.09-.12-.35-.25-.47a1.26,1.26,0,0,0-1.33-.36,1.17,1.17,0,0,1-1.36,0c-.29-.22-.54,0-.83.07s-.6.28-.82.19c-1.46-.54-3.08-.7-4.41-1.56a8.1,8.1,0,0,0-2.18-.9,1.13,1.13,0,0,0-.57,0,.34.34,0,0,0-.23.19c0,.06-.06.22,0,.25.26.29.57.54.83.8a.59.59,0,0,1-.16,1,4.28,4.28,0,0,1-2,.38,2.82,2.82,0,0,0-1.17.13,5.74,5.74,0,0,0-2.09,1.59c-.79,1-1.52,2.07-2.28,3.09a1.63,1.63,0,0,0-.16,1.69c.16.35-.32.7-.73.67-.57,0-1.11-.44-1.71-.22a.86.86,0,0,1-1.05-.35c-.41-.54-.79-1.12-1.26-1.63a1.29,1.29,0,0,0-1.56-.48,8.14,8.14,0,0,0-1.9.77,3.37,3.37,0,0,1-1.55.7c-.82.16-.7,1.15-1.2,1.56-.26.23-.45.48-.7.55a1.46,1.46,0,0,0-1,1.85,4.51,4.51,0,0,1-.06.6.59.59,0,0,1-.6.51,8.3,8.3,0,0,0-.89-.06.71.71,0,0,0-.63.83c.06.38.15.76.19,1.14a.29.29,0,0,1-.1.26.28.28,0,0,1-.47,0c-.32-.39-.58-.8-.86-1.21a.57.57,0,0,0-.76-.16c-.47.38-.92.76-1.36,1.14a1.28,1.28,0,0,0-.48,1.06,4,4,0,0,1-1.42,3.41,3.72,3.72,0,0,0-.61,1,4.12,4.12,0,0,1-3.16,1.94c-.89.1-1.78.26-2.64.38-1.2.9-2.88.64-4.05,1.63a1.15,1.15,0,0,1-.86.19,3.58,3.58,0,0,0-2.78.61,24.48,24.48,0,0,1-3.4,1.81,2.81,2.81,0,0,0-1.26,1.18c-.32.52-.41-.12-.64-.12a.57.57,0,0,0-.5.12,2.94,2.94,0,0,0-.58,1,7.68,7.68,0,0,0-.12,1.47,4.16,4.16,0,0,1-.63,2.26,1.3,1.3,0,0,0-.1.15h-.29a.13.13,0,0,0,0,.07h-.06v.63a4,4,0,0,0-.16,1.39,7.33,7.33,0,0,0,.32,2.56,78.7,78.7,0,0,0,82-18.94ZM353,352.68h0c-.23,0-.32.06-.23.22s.13.07.19.1l.19-.16C353.09,352.78,353,352.68,353,352.68Zm-127.36,7.94h0s.13.13.19.13.22-.1.19-.13a1.41,1.41,0,0,0-.16-.42A1.86,1.86,0,0,0,225.61,360.62Zm60.18,6.5h0l.19.13,0-.16Zm10.36,5.23h0a.69.69,0,0,0-.26.13c.07,0,.13.13.23.13s.15,0,.22-.1S296.21,372.38,296.15,372.35Zm-2.7,2h0a.34.34,0,0,0,.26.07s.06-.1.09-.2C293.58,374.1,293.45,374.14,293.45,374.36Zm16.9,2.49h0c0,.06.09.16.12.22s.1-.13.16-.19C310.57,376.56,310.44,376.56,310.35,376.85Zm-54.29,12.62h0c.07-.16.1-.28.16-.44a1.13,1.13,0,0,1,.13-.16v0h-.07a.42.42,0,0,0-.06.19c-.06.09-.16.16-.19.25S256.06,389.41,256.06,389.47Zm41.86,11.77h0c0,.25.1.35.26.25s.06-.16.09-.22a.78.78,0,0,0-.16-.22A1.14,1.14,0,0,0,297.92,401.24Zm-3.45,2.23h0c.09,0,.22,0,.22-.06s-.06-.16-.06-.26-.19,0-.19.07S294.47,403.41,294.47,403.47Zm7.45,5.8h0c-.23.13-.2.26.06.32.06,0,.16-.06.22-.06s0-.19-.06-.23S302,409.24,301.92,409.27Zm5.54-30.19h.13l-.07-.16Zm-72.88,1.79h0l.19,0-.07-.2ZM314,389.63h0l-.16-.09v-.13h-.09c-.1-.45-.23-.93-.32-1.37a.63.63,0,0,1,.35-.73,2.86,2.86,0,0,1,.28-.07c.51-.13.92-.25.7-.95a1.09,1.09,0,0,1,.25-.8c.22-.32.54-.58.54-1a.7.7,0,0,0-.25-.51,2.26,2.26,0,0,0-.83-.1.73.73,0,0,1-.72-.38c-.13-.25-.07-.35.41-.64a1.63,1.63,0,0,0,.47-.28c.1-.1.06-.32,0-.48s-.15-.16-.25-.13c-2.06.54-2.53,1.79-2.38,3.76,0,.39.13.77.19,1.15.13.67.26,1.34.42,2l-.07-.06a.1.1,0,0,0,0,.06c.1.1.2.19.29.29-.09-.1-.19-.19-.29-.29a2.42,2.42,0,0,0-.5.16.47.47,0,0,0-.26.64.47.47,0,0,0,.7.22,4.1,4.1,0,0,0,.63-.45s0,0,.07.07l0-.1c.15,0,.34,0,.54,0a.09.09,0,0,0,0,.06l.06.07C313.86,389.67,313.89,389.73,314,389.63Zm-16.38-36.69h0a1.24,1.24,0,0,1,.12-.32.11.11,0,0,1,.1,0s0-.06-.07-.06c.64.32,1.24.61,1.84,0l-.13-.06h.2s0,.06-.07.06v0c.22.16.6.32.67.54a1.56,1.56,0,0,0,1.14,1.41c.31.09.28.41,0,.67-.8.7-.76,1,.16,1.4a3.65,3.65,0,0,0,.82.29.74.74,0,0,0,.47-.19,8.39,8.39,0,0,1,.26-2,1.15,1.15,0,0,0-.35-.77c-.35-.35-.79-.67-.82-1.18,0-.95-.64-1.37-1.43-1.66a5.46,5.46,0,0,1-.95-.67,1.34,1.34,0,0,0-1.14-.16c-.19.07-.38.13-.54.2a1.55,1.55,0,0,1-.29.09,1.35,1.35,0,0,1-.53-.19c-.23-.1-.23-.38,0-.76.53-.9.53-.9-.38-1a.64.64,0,0,1-.58-.55,2.49,2.49,0,0,1,.42-1.69,6,6,0,0,0,.6-.63,3.33,3.33,0,0,0,.41-3.64,3.38,3.38,0,0,1-.41-2.26c.06-.32-.19-.51-.6-.48a4.59,4.59,0,0,1-2-.25c-1-.42-1.52.31-1.81,1a4.42,4.42,0,0,0-.28,1.14c-.13,1.09-.26,2.17-.32,3.26a1.26,1.26,0,0,1-.48,1,.8.8,0,0,0-.22.55,22,22,0,0,0,.83,2.83,2.05,2.05,0,0,0,1.39,1.37v0c0-.16.1-.19.19,0l-.16.09a0,0,0,0,0,0,0,1.71,1.71,0,0,0,1.17,1.95,2.15,2.15,0,0,1,.61.38l.06.06a1.67,1.67,0,0,0-1.4.07.56.56,0,0,0-.25.44,7.9,7.9,0,0,0,1.24,2.62.74.74,0,0,0,1.23-.1,1.65,1.65,0,0,0,0-1.94c-.25-.38-.54-.73-.82-1.09h0l-.09-.06c.38-.22.79-.41,1.17-.64a.63.63,0,0,1,.73.1,3.64,3.64,0,0,1,.5.54.12.12,0,0,0,0,.1,1.51,1.51,0,0,0-.35.06C297.45,352.78,297.54,352.84,297.61,352.94Zm3.8,61.59h0v-.06a1.76,1.76,0,0,0,.82,0,6.14,6.14,0,0,0,2.82-1.47,5.21,5.21,0,0,1,3.11-1.62,4.21,4.21,0,0,0,1.33-.58c.35-.19.73-.31.79-.79,0-.23-.41-.45-.95-.42-1.58,0-3.14,0-4.5,1.05-.38.29-.95.26-1.39.52a3.3,3.3,0,0,0-1.11.92,3.61,3.61,0,0,0-.92,2.36h-.06c-.23.19-.45.41-.67.6,0,0,0,.07,0,.07a2.43,2.43,0,0,0-.45,0,.42.42,0,0,0-.15.19.26.26,0,0,0,.41.16.62.62,0,0,0,.19-.38h.09C301,415,301.19,414.76,301.41,414.53Zm-70.36-67.75a4,4,0,0,0,2-.7c.73-.54,1.49-1,2.21-1.47.13-.09.45-.15.54-.06.54.54,1.3.92,1.46,1.79.13.67.32,1.37.51,2,.54,1.69.79,3.51,1.87,5a3.35,3.35,0,0,1,.44,1.11c.1.39.1.8.22,1.15a7.42,7.42,0,0,1,.07,4.4,2,2,0,0,0-.1,1.15,5.28,5.28,0,0,1-.19,3.22c-.41,1.18-.28,2.14,1,2.65a.38.38,0,0,1,.22.16c1.17,1.46,2.34,2.93,3.48,4.43a5,5,0,0,1,.61,2.55,1.5,1.5,0,0,0,.22.54,3,3,0,0,1,.35,1.72,2.1,2.1,0,0,0,.63,1.63,4.53,4.53,0,0,1,1.43,2.17c.06.25.35.47.57.67s.69.44.88.76a4.24,4.24,0,0,0,2.06,1.59c1,.48,1.94,1,2.89,1.53l-.07.07h.19c.48.29.92.57,1.4.83.09,0,.32-.1.47-.19a.22.22,0,0,0,.07-.23,1,1,0,0,0-.38-.41,1.09,1.09,0,0,0-.57-.07c-.32,0-.67,0-1,.07,0,0-.06-.07-.09-.07a2.87,2.87,0,0,1,.54-.51.82.82,0,0,0,.31-1.05,9.38,9.38,0,0,0-1.14-2.36,4.12,4.12,0,0,1-.88-2.71c0-.57,0-1.18,0-1.75a3,3,0,0,0-.6-1.94c-.77-.9-1.62-1.7-2.44-2.56-1.18-.44-1.94-1.56-3.14-2.07a2.1,2.1,0,0,1-1.36-2.07,2.14,2.14,0,0,0-.67-1.59,7.33,7.33,0,0,1-1.3-2.24h0l0-.06v.06a1.76,1.76,0,0,1-1.46-1.59,4.12,4.12,0,0,1,.13-1.75,26.24,26.24,0,0,0,1.58-6.64.51.51,0,0,1,.16-.25,1,1,0,0,1,.48-.26.85.85,0,0,1,.54.13,1.07,1.07,0,0,1,.28.51,1.6,1.6,0,0,0,1.81,1.53,1.51,1.51,0,0,1,.85.16c1,.73,2.22,1.21,2.82,2.49a11,11,0,0,0,3.17,3.41c.26-.13.64-.38.8-.32.56.35,1.2.64,1.14,1.53a19.08,19.08,0,0,0,.06,2.39c0,.23.51.38.73.29s.22-.06.28-.13c1.14-1.11,2.29-2.2,3.39-3.31a1.77,1.77,0,0,1,.92-.67,8.39,8.39,0,0,0,3.74-2.33,4.5,4.5,0,0,0,1.27-2.3,6.12,6.12,0,0,0,0-4.05.89.89,0,0,1,0-.28,15.07,15.07,0,0,0-1.72-5,7,7,0,0,0-1.23-1.66,17.05,17.05,0,0,0-3.3-2.52,3.31,3.31,0,0,1-1.61-2,2.35,2.35,0,0,0-.86-1.21,10.59,10.59,0,0,1-.85-.79.83.83,0,0,1-.29-.51c0-1.06-.38-2.17.67-3a2.41,2.41,0,0,0,.85-1.53,1.22,1.22,0,0,1,.64-1c1.1-.64,2.21-1.27,3.35-1.85a1.49,1.49,0,0,1,.86-.09,7.49,7.49,0,0,1,.86.32c.69.16,1.23.41,1.36,1.27a2.39,2.39,0,0,0,1,1.44.88.88,0,0,0,1.39-.51,6.77,6.77,0,0,0,0-.9l.07.07.06-.16-.1.06c-.09-.13-.22-.29-.18-.41a.53.53,0,0,1,.31-.42c1.36-.22,2.54-1,3.87-1.37a4.15,4.15,0,0,0,2.66-2.2c.16-.35.38-.35.67-.16s.63.48,1.07.29a7.55,7.55,0,0,1,2.51-.77,8.69,8.69,0,0,0,2-.6,2,2,0,0,0,1.43-1.37c.09-.32.38-.39.63-.54.95-.67,2-1.25,2.41-2.46a.43.43,0,0,1,.16-.26,3.38,3.38,0,0,0,1.52-2.07c.09-.32.44-.32.69-.41.48-.19.64-.48.51-.9a8.23,8.23,0,0,1-.16-2.32c0-.48-.19-.89.42-1.25a3,3,0,0,0,1.48-2.42,2.38,2.38,0,0,1,.77-1.56,2.21,2.21,0,0,0,.88-2,3,3,0,0,1,.35-1.4,2.6,2.6,0,0,0,.15-.28A78.94,78.94,0,0,0,231.05,346.78Z" transform="translate(-170.08 -250.87)" fill="#fff" fill-rule="evenodd" />
    <path d="M405.91,381.61l-6.66,4.87,2.55,7.91-6.66-4.89-6.67,4.89,2.54-7.91-6.64-4.87h8.22l2.55-7.9,2.53,7.9ZM393.63,442,387,446.88l2.55,7.91-6.66-4.88-6.67,4.88,2.55-7.91L372.09,442h8.22l2.55-7.91L385.4,442Zm-58,36-6.65,4.87,2.55,7.91L324.83,486l-6.68,4.88,2.55-7.91-6.64-4.87h8.22l2.55-7.9,2.53,7.9Zm-75.91,0,6.66,4.87-2.55,7.91,6.66-4.88,6.67,4.88-2.55-7.91,6.65-4.87H273l-2.55-7.9-2.54,7.9ZM201,442l6.66,4.86-2.55,7.91,6.66-4.88,6.67,4.88-2.55-7.91,6.65-4.86h-8.22l-2.55-7.91L209.27,442Zm-12.28-60.41,6.66,4.87-2.55,7.91,6.66-4.89,6.67,4.89-2.55-7.91,6.65-4.87h-8.22l-2.55-7.9-2.53,7.9Zm21.16-62.75,6.65,4.87L214,331.64l6.65-4.88,6.68,4.88-2.55-7.91,6.64-4.87h-8.22l-2.55-7.9-2.53,7.9ZM314.79,281l-10.27,7.51,3.93,12.19-10.26-7.53-10.29,7.53,3.93-12.19L281.58,281h12.68l3.93-12.18,3.9,12.18Zm70,37.9-6.66,4.87,2.55,7.91L374,326.76l-6.67,4.88,2.55-7.91-6.64-4.87h8.22L374,311l2.54,7.9Z" transform="translate(-170.08 -250.87)" fill="#fff200" fill-rule="evenodd" />
</svg>